<?xml version="1.0" encoding="utf-8"?>
<!-- Generator: Adobe Illustrator 23.1.1, SVG Export Plug-In . SVG Version: 6.00 Build 0)  -->
<svg class="icon-color" version="1.1" id="Ebene_1" xmlns="http://www.w3.org/2000/svg" xmlns:xlink="http://www.w3.org/1999/xlink" x="0px" y="0px"
	 viewBox="0 0 100 100" style="enable-background:new 0 0 100 100;" xml:space="preserve">
<g>
	<path d="M49.9,76.4c2.9,0,5.3-2.4,5.3-5.3V55.3H71c2.9,0,5.3-2.4,5.3-5.3c0-2.9-2.4-5.3-5.3-5.3H55.2V28.9c0-2.9-2.4-5.3-5.3-5.3
		c-2.9,0-5.3,2.4-5.3,5.3v15.8H28.8c-2.9,0-5.3,2.4-5.3,5.3c0,2.9,2.4,5.3,5.3,5.3h15.8v15.8C44.6,74,47,76.4,49.9,76.4z"/>
	<path d="M65.2,88.2H16.7c-2.7,0-5-2.2-5-5V16.8c0-2.7,2.2-5,5-5h66.4c2.7,0,5,2.2,5,5V59l8-10.2V16.8c0-7.2-5.8-13-13-13H16.7
		c-7.2,0-13,5.8-13,13v66.4c0,7.2,5.8,13,13,13h42.2L65.2,88.2z"/>
</g>
</svg>
