<?xml version="1.0" encoding="utf-8"?>
<!-- Generator: Adobe Illustrator 23.1.1, SVG Export Plug-In . SVG Version: 6.00 Build 0)  -->
<svg version="1.1"
	 id="Ebene_1" xmlns:cc="http://creativecommons.org/ns#" xmlns:dc="http://purl.org/dc/elements/1.1/" xmlns:inkscape="http://www.inkscape.org/namespaces/inkscape" xmlns:rdf="http://www.w3.org/1999/02/22-rdf-syntax-ns#" xmlns:sodipodi="http://sodipodi.sourceforge.net/DTD/sodipodi-0.dtd" xmlns:svg="http://www.w3.org/2000/svg"
	 xmlns="http://www.w3.org/2000/svg" xmlns:xlink="http://www.w3.org/1999/xlink" x="0px" y="0px" viewBox="0 0 70 50"
	 style="enable-background:new 0 0 70 50;" xml:space="preserve">
<g transform="translate(0,-952.36218)">
	<path d="M68,977.4c0-0.7-0.3-1.5-0.8-2.1l-16-17c-1.1-1-3.2-1.4-4.4-0.2c-1.2,1.1-1.2,3.3,0,4.4l11.2,11.9H5c-1.7,0-3,1.3-3,3
		c0,1.7,1.3,3,3,3h53.1l-11.2,11.9c-1,1-1.2,3.3,0,4.4c1.2,1.1,3.3,0.8,4.4-0.3l16-17C67.7,978.8,68,978.2,68,977.4z"/>
</g>
</svg>
