<?xml version="1.0" encoding="utf-8"?>
<!-- Generator: Adobe Illustrator 23.1.1, SVG Export Plug-In . SVG Version: 6.00 Build 0)  -->
<svg version="1.1" id="Ebene_1" xmlns="http://www.w3.org/2000/svg" xmlns:xlink="http://www.w3.org/1999/xlink" x="0px" y="0px"
	 viewBox="0 0 100 90" style="enable-background:new 0 0 100 90;" xml:space="preserve">
<title>26</title>
<g>
	<path d="M94.9,56.8c-0.1-0.7-0.3-1.3-0.5-2v-0.4l0,0c-0.4-1.1-0.8-2.2-1.4-3.3L79.4,18.9C78.2,12.7,72.2,8.6,66,9.7
		c-5.4,1-9.3,5.7-9.4,11.2H43.4c-0.1-6.4-5.3-11.4-11.6-11.4c-5.5,0.1-10.2,4-11.2,9.4L7,51.1c-0.5,1-1,2.1-1.3,3.2l0,0v0.4
		c-0.2,0.7-0.4,1.3-0.5,2c-1.9,10.4,5,20.3,15.3,22.2l3.3,0.3c9.3,0,17.2-6.7,18.8-15.8v-0.6c0.2-1.6,0.3-3.2,0.1-4.8v-4.2h14.5V58
		c-0.2,1.6-0.1,3.2,0.1,4.8v0.6c1.6,9.1,9.5,15.8,18.8,15.8l3.3-0.3C89.8,77.1,96.7,67.2,94.9,56.8z M62,17.1
		c2.5-3.4,7.2-4.1,10.6-1.7c1.5,1.1,2.6,2.8,3,4.7c0.1,0.3,0.2,0.5,0.3,0.7l9.5,22.6c-8.2-4.6-18.6-2.4-24.3,5.1L60.7,23v-0.3
		C60.4,20.7,60.8,18.7,62,17.1z M43.2,25h13.6L57,39.4H43L43.2,25z M27.5,15.2c3.5-2.4,8.2-1.5,10.6,2c1.1,1.6,1.6,3.6,1.2,5.5V23
		l-0.4,25.5c-5.7-7.5-16.1-9.7-24.3-5.1l9.5-22.6c0.1-0.2,0.2-0.4,0.3-0.7C24.7,18.1,25.9,16.4,27.5,15.2z M21.2,74.9
		C13,73.4,7.6,65.7,9,57.5c0.1-0.6,0.2-1.1,0.4-1.7l1.2-2.9c2.6-4.8,7.6-7.8,13.1-7.8l2.6,0.2c6.5,1.1,11.6,6.3,12.5,12.9v4.5
		C37.3,70.9,29.5,76.4,21.2,74.9C21.3,74.9,21.2,74.9,21.2,74.9z M42.9,49.8v-6.4H57v6.5L42.9,49.8z M78.8,74.9
		c-8.2,1.5-16-4-17.5-12.2v-4.5c0.9-6.5,5.8-11.7,12.3-12.9l2.6-0.2c5.5,0,10.5,3,13.1,7.8l1.2,2.9c0.2,0.6,0.4,1.1,0.5,1.7
		C92.4,65.7,87,73.4,78.8,74.9z"/>
</g>
</svg>
