<?xml version="1.0" encoding="utf-8"?>
<!-- Generator: Adobe Illustrator 23.1.1, SVG Export Plug-In . SVG Version: 6.00 Build 0)  -->
<svg version="1.1" id="Ebene_1" xmlns="http://www.w3.org/2000/svg" xmlns:xlink="http://www.w3.org/1999/xlink" x="0px" y="0px"
	 viewBox="0 0 375 92.4" style="enable-background:new 0 0 375 92.4;" xml:space="preserve">
<style type="text/css">
	.st0{fill:none;stroke:#000000;stroke-miterlimit:10;}
	.st1{display:none;enable-background:new    ;}
	.st2{font-family:'Roboto-Light';}
	.st3{font-size:30px;}
</style>
<title>btn-flat_1</title>
<g>
	<g id="Ebene_1-2">
		<path d="M95.2,61.9c1.4,0,2.6-1.2,2.6-2.6v-7.8h7.8c1.4,0,2.6-1.2,2.6-2.6s-1.2-2.6-2.6-2.6h-7.8v-7.8c0-1.4-1.2-2.6-2.6-2.6
			s-2.6,1.2-2.6,2.6v7.8h-7.8c-1.4,0-2.6,1.2-2.6,2.6s1.2,2.6,2.6,2.6h7.8v7.8C92.6,60.7,93.8,61.9,95.2,61.9z"/>
		<path class="st0" d="M344.5,85.4H14c-2.8,0-5-2.2-5-5V14c0-2.8,2.2-5,5-5h348.4c2.8,0,5,2.2,5,5v42.2"/>
		<path d="M157.7,52.7H148l-2.2,6H144l8.1-21.3h1.7l8,21.3H160L157.7,52.7z M148.6,51.1h8.6L153,39.6h-0.1L148.6,51.1z"/>
		<path d="M163.8,50.8c-0.1-2.1,0.5-4.3,1.6-6.1c1-1.5,2.7-2.3,4.5-2.3c1,0,2,0.2,2.9,0.7c0.8,0.5,1.5,1.2,2,2v-9.4h1.7v22.8H175
			l-0.1-2.3c-0.5,0.8-1.2,1.5-2,1.9c-0.9,0.5-1.9,0.7-2.9,0.7c-1.7,0.1-3.4-0.7-4.4-2.1c-1.1-1.7-1.7-3.7-1.6-5.7L163.8,50.8z
			 M165.6,51.1c-0.1,1.6,0.3,3.2,1.1,4.6c0.8,1.1,2.1,1.8,3.5,1.7c1,0,2-0.2,2.8-0.8c0.8-0.5,1.4-1.3,1.8-2.1V47
			c-0.4-0.9-1-1.6-1.7-2.2c-0.8-0.6-1.8-0.9-2.9-0.9c-1.4-0.1-2.8,0.7-3.5,1.9c-0.8,1.5-1.3,3.3-1.2,5L165.6,51.1L165.6,51.1z"/>
		<path d="M180.5,50.8c-0.1-2.1,0.5-4.3,1.6-6.1c1-1.5,2.7-2.3,4.5-2.3c1,0,2,0.2,2.9,0.7c0.8,0.5,1.5,1.2,2,2v-9.4h1.7v22.8h-1.6
			l-0.1-2.3c-0.5,0.8-1.2,1.5-2,1.9c-0.9,0.5-1.9,0.7-2.9,0.7c-1.7,0.1-3.4-0.7-4.4-2.1c-1.1-1.7-1.7-3.7-1.6-5.7L180.5,50.8z
			 M182.3,51.1c-0.1,1.6,0.3,3.2,1.1,4.6c0.8,1.1,2.1,1.8,3.5,1.7c1,0,2-0.2,2.8-0.8c0.8-0.5,1.4-1.3,1.8-2.1V47
			c-0.4-0.9-1-1.6-1.7-2.2C189,44.2,188,44,187,44c-1.4-0.1-2.8,0.7-3.5,1.9c-0.8,1.5-1.3,3.3-1.2,5V51.1z"/>
		<path d="M220.9,56.1c-0.7,0.9-1.6,1.5-2.6,1.9c-1.5,0.6-3.1,1-4.8,0.9c-2.3,0.1-4.5-0.8-6.1-2.5c-1.6-1.8-2.5-4.1-2.4-6.6v-3.9
			c-0.1-2.4,0.7-4.7,2.3-6.5c1.5-1.6,3.6-2.5,5.9-2.5c1.9-0.1,3.9,0.5,5.4,1.7c1.3,1.1,2.1,2.8,2.2,4.5v0.1h-1.6
			c-0.2-1.3-0.8-2.5-1.8-3.5c-1.2-1-2.7-1.4-4.2-1.3c-1.8-0.1-3.5,0.7-4.6,2.1c-1.2,1.5-1.8,3.4-1.8,5.3v3.9c-0.1,2,0.6,3.9,1.9,5.5
			c1.2,1.4,3,2.2,4.9,2.1c1.2,0,2.5-0.2,3.6-0.6c0.8-0.3,1.4-0.7,2-1.3V50h-5.7v-1.5h7.4L220.9,56.1L220.9,56.1z"/>
		<path d="M224.8,50.5c-0.1-2.1,0.6-4.1,1.9-5.7c2.6-2.8,6.9-3,9.7-0.5c0.2,0.1,0.3,0.3,0.5,0.5c1.3,1.6,2,3.7,1.9,5.7V51
			c0.1,2.1-0.6,4.1-1.9,5.8c-1.3,1.5-3.1,2.3-5.1,2.2c-2,0.1-3.8-0.7-5.1-2.2c-1.3-1.6-2-3.7-1.9-5.8L224.8,50.5z M226.5,50.9
			c-0.1,1.7,0.4,3.3,1.4,4.6c1.7,2.1,4.8,2.5,6.9,0.8c0.3-0.2,0.6-0.5,0.8-0.8c1-1.3,1.5-3,1.4-4.6v-0.5c0-1.6-0.4-3.3-1.4-4.6
			c-0.9-1.2-2.4-1.9-3.9-1.9c-1.5-0.1-3,0.6-3.9,1.9c-1,1.3-1.4,2.9-1.4,4.6L226.5,50.9L226.5,50.9z"/>
		<path d="M252.5,58.6c-0.1-0.5-0.2-1-0.2-1.4s-0.1-0.8-0.1-1.2c-0.6,0.9-1.4,1.6-2.3,2.1c-1,0.6-2.1,0.8-3.3,0.8
			c-1.3,0.1-2.6-0.4-3.6-1.2c-0.9-0.9-1.3-2.1-1.3-3.3c0-1.4,0.7-2.8,1.9-3.5c1.5-1,3.3-1.4,5.1-1.3h3.5v-2c0.1-1-0.3-2-1.1-2.7
			c-0.9-0.7-2-1-3.1-0.9c-1.1,0-2.1,0.3-3,0.9c-0.7,0.5-1.2,1.4-1.2,2.3h-1.6v-0.1c0-1.3,0.6-2.5,1.6-3.2c1.2-1,2.8-1.5,4.4-1.4
			c1.5-0.1,3,0.4,4.2,1.3c1.1,1,1.7,2.4,1.6,3.8v7.8c0,0.5,0,1.1,0.1,1.6s0.2,1.1,0.3,1.6L252.5,58.6z M246.7,57.4
			c1.2,0,2.3-0.3,3.3-0.9c0.9-0.5,1.6-1.3,2.1-2.3v-3.3h-3.5c-1.3-0.1-2.7,0.3-3.8,1c-0.9,0.5-1.4,1.5-1.4,2.5
			c0,0.8,0.3,1.6,0.9,2.1C245,57.1,245.8,57.4,246.7,57.4z"/>
		<path d="M260.5,58.6h-1.7V35.8h1.7V58.6z"/>
	</g>
</g>
<text transform="matrix(1 0 0 1 132.9932 58.6582)" class="st1 st2 st3">Add as Goal</text>
</svg>
