<?xml version="1.0" encoding="utf-8"?>
<!-- Generator: Adobe Illustrator 23.1.1, SVG Export Plug-In . SVG Version: 6.00 Build 0)  -->
<svg version="1.1" id="Ebene_1" xmlns="http://www.w3.org/2000/svg" xmlns:xlink="http://www.w3.org/1999/xlink" x="0px" y="0px"
	 viewBox="0 0 80 80" style="enable-background:new 0 0 80 80;" xml:space="preserve">
<style type="text/css">
	.st0{fill-rule:evenodd;clip-rule:evenodd;fill:#C6C5C5;}
</style>
<title>Artboard 1 Copy</title>
<desc>Created with Sketch.</desc>
<g>
	<g>
		<path class="st0" d="M71.8,40C71.8,21.8,57.5,7,40,7C22.5,7,8.2,21.8,8.2,40S22.5,73,40,73C57.5,73,71.8,58.2,71.8,40 M77.5,40
			c0,21.3-16.8,38.6-37.5,38.6C19.3,78.6,2.5,61.3,2.5,40S19.3,1.4,40,1.4C60.7,1.4,77.5,18.7,77.5,40 M59.3,24.9L43.6,40.6
			l15.7,15.7c1.1,1.1,1.1,2.9,0,4c-0.6,0.6-1.3,0.8-2,0.8c-0.7,0-1.5-0.3-2-0.8L39.6,44.6L23.9,60.3c-0.6,0.6-1.3,0.8-2,0.8
			c-0.7,0-1.5-0.3-2-0.8c-1.1-1.1-1.1-2.9,0-4l15.7-15.7L19.9,24.9c-1.1-1.1-1.1-2.9,0-4c1.1-1.1,2.9-1.1,4,0l15.7,15.7l15.7-15.7
			c1.1-1.1,2.9-1.1,4,0C60.4,22,60.4,23.8,59.3,24.9"/>
	</g>
</g>
</svg>
