<svg xmlns="http://www.w3.org/2000/svg" viewBox="0 0 48 48"><title>passenger</title><g class="nc-icon-wrapper"><path d="M15.708,24.812l-2.04,6.023-4.1-1.367a2,2,0,0,0-2.53,1.264l-3.667,11a2,2,0,0,0,1.264,2.53l6.008,1.942L17.634,25.39Z" fill="#47b0ea"/><circle cx="10" cy="45" r="2" fill="#444"/><polygon points="15.708 24.813 13.668 30.835 15.589 31.475 17.634 25.39 15.708 24.813" fill="#b3b3b3"/><circle cx="31" cy="6" r="5" fill="#5a7a84"/><path d="M26.45,18.561l.983-5.238-9.459,4.75a2,2,0,0,0-.964,1.05L14.967,24.26a1.494,1.494,0,0,0,2.775,1.107l1.912-4.78Z" fill="#335262"/><path d="M36.2,32.4l-7.638-5.744-1.708,5.832L33,36v8a2,2,0,0,0,4,0V34A2,2,0,0,0,36.2,32.4Z" fill="#335262"/><path d="M44.083,19.083a1.5,1.5,0,0,0-1.95-.836h0L37.365,20.12,32,14.375a3.969,3.969,0,0,0-6.947,2.136S20,44.4,20,45a2,2,0,0,0,3.92.53L32.1,20.33l3.848,2.63a2,2,0,0,0,1.871.206l5.423-2.134A1.5,1.5,0,0,0,44.083,19.083Z" fill="#5a7a84"/></g></svg>