<svg xmlns="http://www.w3.org/2000/svg" viewBox="0 0 48 48"><title>sports fan</title><g class="nc-icon-wrapper"><circle cx="24" cy="25.984" r="5" fill="#5a7a84"/> <path d="M44,16.842a1.019,1.019,0,0,1-.371-.071,52.972,52.972,0,0,0-39.258,0A1,1,0,0,1,3,15.842V5.691a1,1,0,0,1,.643-.933,57.016,57.016,0,0,1,40.714,0A1,1,0,0,1,45,5.691V15.842a1,1,0,0,1-1,1Z" fill="#ed7064"/> <path d="M44.158,20.352a2.073,2.073,0,0,0-2.647.292L30.051,32.1a3,3,0,0,1-2.122.879H20.071a3,3,0,0,1-2.122-.879L6.489,20.644a2.073,2.073,0,0,0-2.647-.292A2,2,0,0,0,3.586,23.4L16.121,35.933A3,3,0,0,1,17,38.054V47H31V38.054a3,3,0,0,1,.879-2.121L44.414,23.4A2,2,0,0,0,44.158,20.352Z" fill="#5a7a84"/></g></svg>