<?xml version="1.0" encoding="utf-8"?>
<!-- Generator: Adobe Illustrator 23.1.1, SVG Export Plug-In . SVG Version: 6.00 Build 0)  -->
<svg version="1.1" xmlns="http://www.w3.org/2000/svg" xmlns:xlink="http://www.w3.org/1999/xlink" x="0px" y="0px"
	 viewBox="0 0 250 251" style="enable-background:new 0 0 250 251;" xml:space="preserve">
<style type="text/css">
	.st0{fill:#23C1B8;fill-opacity:0.7;stroke:#FFFFFF;stroke-width:3;}
	.st1{fill:#D31565;fill-opacity:0.7;stroke:#FFFFFF;stroke-width:3;}
	.st2{fill:#3AA1FF;fill-opacity:0.7;stroke:#FFFFFF;stroke-width:3;}
</style>
<g id="Ebene_2">
</g>
<g id="Ebene_1">
	<path class="st0" d="M70.4,171.9l0.7-59.5c0.2-16,17.7-25.6,31.3-17.2l52.3,32.4c13.6,8.4,12.8,28.4-1.4,35.7l-52.9,27.1
		C86.5,197.4,70.2,187.3,70.4,171.9z"/>
	<path class="st1" d="M102.4,155.9l0.7-59.5c0.2-16,17.7-25.6,31.3-17.2l52.3,32.4c13.6,8.4,12.8,28.4-1.4,35.7l-52.9,27.1
		C118.5,181.4,102.2,171.3,102.4,155.9z"/>
	<path class="st2" d="M70.4,136.9L71,77.4c0.2-16,17.7-25.6,31.3-17.2l52.3,32.4c13.6,8.4,12.8,28.4-1.4,35.7l-52.9,27.1
		C86.5,162.4,70.2,152.3,70.4,136.9z"/>
</g>
</svg>
