<?xml version="1.0" encoding="utf-8"?>
<!-- Generator: Adobe Illustrator 23.1.1, SVG Export Plug-In . SVG Version: 6.00 Build 0)  -->
<svg version="1.1" id="Ebene_1" xmlns="http://www.w3.org/2000/svg" xmlns:xlink="http://www.w3.org/1999/xlink" x="0px" y="0px"
	 viewBox="0 0 250 251" style="enable-background:new 0 0 250 251;" xml:space="preserve">
<style type="text/css">
	.st0{fill:#23C1B8;fill-opacity:0.7;stroke:#FFFFFF;stroke-width:3;}
	.st1{fill:#D31565;fill-opacity:0.7;stroke:#FFFFFF;stroke-width:3;}
	.st2{fill:#3AA1FF;fill-opacity:0.7;stroke:#FFFFFF;stroke-width:3;}
</style>
<g>
	<path class="st0" d="M22,208l1.2-105.2c0.4-28.3,31.3-45.3,55.4-30.4l92.5,57.3c24.1,14.9,22.6,50.2-2.5,63.1L75,240.8
		C50.4,253.1,21.6,235.3,22,208z"/>
	<path class="st1" d="M78.6,179.7l1.2-105.2c0.4-28.3,31.3-45.3,55.4-30.4l92.5,57.3c24.1,14.9,22.6,50.2-2.5,63.1l-93.6,47.9
		C107,224.8,78.2,207,78.6,179.7z"/>
	<path class="st2" d="M22,146.1L23,40.9c0.4-28.3,31.3-45.3,55.4-30.4l92.5,57.3c24.1,14.9,22.6,50.2-2.5,63.1l-93.6,47.9
		C50.4,191.2,21.6,173.4,22,146.1z"/>
</g>
</svg>
